<svg xmlns="http://www.w3.org/2000/svg" height="48" viewBox="0 -960 960 960" width="48"><path d="M480.09-570.826q-74.379 0-120.843-46.811-46.465-46.811-46.465-120.246 0-73.987 46.368-120.965 46.367-46.978 120.477-46.978 74.662 0 121.409 46.859t46.747 120.854q0 73.996-46.657 120.642-46.657 46.645-121.036 46.645ZM479.905-654q36.399 0 60.269-23.563 23.869-23.564 23.869-60.95 0-36.4-23.774-60.269-23.775-23.87-59.891-23.87-36.117 0-60.269 23.87-24.152 23.869-24.152 60.768 0 36.9 24.043 60.457Q444.043-654 479.905-654ZM141.043-56.087V-315.52q0-42.131 21.193-73.319 21.192-31.188 56.46-47.429 50.434-23.47 117.98-42.622T480-498.043q75.779 0 142.103 18.915 66.325 18.915 118.201 42.954 36.462 16.766 57.84 47.644t21.378 73.009v176.26q0 34.139-25.398 58.657-25.399 24.517-58.342 24.517H396.218q-46.455 0-78.771-32.378-32.317-32.379-32.317-78.923 0-46.545 32.317-79.209 32.316-32.664 78.771-32.664h114l59.086-127.173q-23.632-5-45.103-6.717-21.47-1.718-44.348-1.718-70.501 0-126.438 16.022-55.936 16.021-98.497 35.904-11.874 7.117-21.287 21.13-9.413 14.012-9.413 28.397v257.33h-83.175Zm255.175-76.956h42.086l33.261-69.261h-75.711q-12.436 0-23.102 11.208-10.665 11.208-10.665 24.348 0 13.139 10.465 23.422 10.466 10.283 23.666 10.283Zm132.261-6.218h207.303v-173.556q0-15.436-9.277-28.81-9.277-13.374-22.549-21.199-11.417-5.048-26.252-10.545-14.834-5.498-32.443-12.933L528.479-139.261ZM480-738.609Zm3.957 469.827Z"/></svg>