<svg width="26" height="31" viewBox="0 0 26 31" fill="none" xmlns="http://www.w3.org/2000/svg">
<path d="M12.7345 6.64961C14.4928 6.64961 15.9182 5.22422 15.9182 3.46592C15.9182 1.70761 14.4928 0.282227 12.7345 0.282227C10.9762 0.282227 9.55078 1.70761 9.55078 3.46592C9.55078 5.22422 10.9762 6.64961 12.7345 6.64961Z" fill="#FF8643"/>
<path d="M23.8777 7.72148H1.59184C0.712682 7.72148 0 8.43416 0 9.31333C0 10.1925 0.712682 10.9052 1.59184 10.9052H8.12179C8.49183 10.9715 8.99711 11.1597 9.26368 11.8505C9.57216 12.6501 9.42087 14.0794 9.22793 15.2814L8.97754 16.7004L8.97369 16.721L8.97343 16.7224L6.95875 28.1484C6.806 29.0141 7.38417 29.8397 8.24993 29.9925C9.11583 30.1451 9.93019 29.5669 10.0828 28.701L11.4745 20.7446V20.7557C11.4745 20.7557 11.8891 18.5991 12.6984 18.5991H12.7711C13.597 18.5991 13.995 20.7557 13.995 20.7557V20.7502L15.3867 28.7037C15.5393 29.5696 16.3593 30.1462 17.2252 29.9936C18.0909 29.8408 18.6663 29.0145 18.5136 28.1488L16.4975 16.7222C16.4974 16.7217 16.4966 16.7209 16.4965 16.7204C16.4952 16.7135 16.4936 16.7061 16.4923 16.6991L16.2418 15.2788C16.0488 14.0769 15.8975 12.6502 16.2059 11.8505C16.4725 11.1597 16.9777 10.9715 17.3477 10.9052H23.8777C24.7568 10.9052 25.4695 10.1925 25.4695 9.31333C25.4695 8.43416 24.7568 7.72148 23.8777 7.72148Z" fill="#FF8643"/>
</svg>
