<svg width="16" height="16" viewBox="0 0 16 16" fill="none" xmlns="http://www.w3.org/2000/svg">
<path d="M12.5375 1.2725H12.4175V1.0625C12.4175 0.755 12.1625 0.5 11.855 0.5C11.5475 0.5 11.2925 0.755 11.2925 1.0625V1.2725H4.7075V1.0625C4.7075 0.755 4.46 0.5 4.145 0.5C3.8375 0.5 3.5825 0.755 3.5825 1.0625V1.2725H3.4625C1.8275 1.2725 0.5 2.6 0.5 4.235V12.5375C0.5 14.1725 1.8275 15.5 3.4625 15.5H12.5375C14.1725 15.5 15.5 14.1725 15.5 12.5375V4.235C15.5 2.6 14.1725 1.2725 12.5375 1.2725ZM3.5 13.2275C3.0875 13.2275 2.75 12.8975 2.75 12.4775C2.75 12.065 3.0875 11.7275 3.5 11.7275C3.9125 11.7275 4.25 12.065 4.25 12.4775C4.25 12.8975 3.9125 13.2275 3.5 13.2275ZM3.5 10.6175C3.0875 10.6175 2.75 10.28 2.75 9.86751C2.75 9.4475 3.0875 9.11751 3.5 9.11751C3.9125 9.11751 4.25 9.4475 4.25 9.86751C4.25 10.28 3.9125 10.6175 3.5 10.6175ZM3.5 8C3.0875 8 2.75 7.6625 2.75 7.25C2.75 6.8375 3.0875 6.5 3.5 6.5C3.9125 6.5 4.25 6.8375 4.25 7.25C4.25 7.6625 3.9125 8 3.5 8ZM6.5 13.2275C6.0875 13.2275 5.75 12.8975 5.75 12.4775C5.75 12.065 6.0875 11.7275 6.5 11.7275C6.9125 11.7275 7.25 12.065 7.25 12.4775C7.25 12.8975 6.9125 13.2275 6.5 13.2275ZM6.5 10.6175C6.0875 10.6175 5.75 10.28 5.75 9.86751C5.75 9.4475 6.0875 9.11751 6.5 9.11751C6.9125 9.11751 7.25 9.4475 7.25 9.86751C7.25 10.28 6.9125 10.6175 6.5 10.6175ZM6.5 8C6.0875 8 5.75 7.6625 5.75 7.25C5.75 6.8375 6.0875 6.5 6.5 6.5C6.9125 6.5 7.25 6.8375 7.25 7.25C7.25 7.6625 6.9125 8 6.5 8ZM9.5 13.2275C9.0875 13.2275 8.75 12.8975 8.75 12.4775C8.75 12.065 9.0875 11.7275 9.5 11.7275C9.9125 11.7275 10.25 12.065 10.25 12.4775C10.25 12.8975 9.9125 13.2275 9.5 13.2275ZM9.5 10.6175C9.0875 10.6175 8.75 10.28 8.75 9.86751C8.75 9.4475 9.0875 9.11751 9.5 9.11751C9.9125 9.11751 10.25 9.4475 10.25 9.86751C10.25 10.28 9.9125 10.6175 9.5 10.6175ZM9.5 8C9.0875 8 8.75 7.6625 8.75 7.25C8.75 6.8375 9.0875 6.5 9.5 6.5C9.9125 6.5 10.25 6.8375 10.25 7.25C10.25 7.6625 9.9125 8 9.5 8ZM12.5 10.6175C12.0875 10.6175 11.75 10.28 11.75 9.86751C11.75 9.4475 12.0875 9.11751 12.5 9.11751C12.9125 9.11751 13.25 9.4475 13.25 9.86751C13.25 10.28 12.9125 10.6175 12.5 10.6175ZM12.5 8C12.0875 8 11.75 7.6625 11.75 7.25C11.75 6.8375 12.0875 6.5 12.5 6.5C12.9125 6.5 13.25 6.8375 13.25 7.25C13.25 7.6625 12.9125 8 12.5 8ZM14.375 4.3625H1.625V4.235C1.625 3.2225 2.45 2.3975 3.4625 2.3975H3.5825V2.6075C3.5825 2.9225 3.8375 3.17 4.145 3.17C4.46 3.17 4.7075 2.9225 4.7075 2.6075V2.3975H11.2925V2.6075C11.2925 2.9225 11.5475 3.17 11.855 3.17C12.1625 3.17 12.4175 2.9225 12.4175 2.6075V2.3975H12.5375C13.55 2.3975 14.375 3.2225 14.375 4.235V4.3625Z" fill="#262B37"/>
</svg>
