<svg width="51" height="51" viewBox="0 0 51 51" fill="none" xmlns="http://www.w3.org/2000/svg">
<circle cx="25.216" cy="25.216" r="25.216" fill="#E4DDFF" fill-opacity="0.68"/>
<path d="M29.5 19H33.4C33.5591 19 33.7117 19.0632 33.8243 19.1758C33.9368 19.2883 34 19.4409 34 19.6V34.3999C34 34.5591 33.9368 34.7117 33.8243 34.8242C33.7117 34.9367 33.5591 34.9999 33.4 34.9999H16.6C16.4409 34.9999 16.2883 34.9367 16.1757 34.8242C16.0632 34.7117 16 34.5591 16 34.3999V19.6C16 19.4409 16.0632 19.2883 16.1757 19.1758C16.2883 19.0632 16.4409 19 16.6 19H20.5" stroke="#4E2EC7" stroke-width="1.5" stroke-linecap="round" stroke-linejoin="round"/>
<path d="M25 22L24 19.5M20 30.9999H30M29.279 20.329L29.484 19.099C29.4949 19.0334 29.4949 18.9665 29.484 18.901L29.278 17.671C29.2002 17.2043 28.9594 16.7804 28.5986 16.4745C28.2377 16.1685 27.7801 16.0004 27.307 16H22.694C22.2206 15.9999 21.7625 16.1678 21.4012 16.4738C21.0399 16.7798 20.7989 17.204 20.721 17.671L20.516 18.901C20.505 18.9665 20.505 19.0334 20.516 19.099L20.721 20.329C20.7989 20.796 21.0399 21.2202 21.4012 21.5262C21.7625 21.8321 22.2206 22 22.694 22H27.306C27.7794 22 28.2375 21.8321 28.5988 21.5262C28.9601 21.2202 29.2011 20.796 29.279 20.329Z" stroke="#4E2EC7" stroke-width="1.5" stroke-linecap="round" stroke-linejoin="round"/>
</svg>
