<svg width="22" height="22" viewBox="0 0 22 22" fill="none" xmlns="http://www.w3.org/2000/svg">
<path d="M13.4062 5.41066C13.6537 5.54816 13.8462 5.72004 13.6743 5.91941L13.2343 6.42129C13.17 6.48822 13.1199 6.56748 13.0871 6.65428C13.0542 6.74108 13.0393 6.83363 13.0432 6.92636C13.0471 7.01908 13.0697 7.11006 13.1097 7.19381C13.1497 7.27756 13.2063 7.35234 13.2759 7.41365C13.3456 7.47496 13.427 7.52153 13.5151 7.55055C13.6033 7.57957 13.6964 7.59045 13.7889 7.58252C13.8813 7.57459 13.9712 7.54802 14.0531 7.50441C14.1351 7.46081 14.2073 7.40106 14.2655 7.32879L14.7055 6.82004C15.393 6.01566 15.2418 4.87441 14.0937 4.21441C13.8462 4.07691 13.6537 3.90504 13.8255 3.70566L14.2655 3.20379C14.3298 3.13685 14.3799 3.0576 14.4127 2.97079C14.4456 2.88399 14.4605 2.79144 14.4566 2.69871C14.4527 2.60599 14.4301 2.51501 14.3901 2.43126C14.3501 2.34752 14.2936 2.27273 14.2239 2.21142C14.1542 2.15011 14.0729 2.10354 13.9847 2.07452C13.8966 2.0455 13.8034 2.03462 13.711 2.04255C13.6185 2.05048 13.5286 2.07705 13.4467 2.12066C13.3647 2.16427 13.2925 2.22401 13.2343 2.29629L12.7943 2.80504C12.093 3.60941 12.258 4.75066 13.4062 5.41066Z" fill="#FF8643"/>
<path d="M7.90616 5.41066C8.15366 5.54816 8.34616 5.72004 8.17429 5.91941L7.73429 6.42129C7.67 6.48822 7.61992 6.56748 7.58709 6.65428C7.55425 6.74108 7.53933 6.83363 7.54322 6.92636C7.54711 7.01908 7.56973 7.11006 7.60973 7.19381C7.64972 7.27756 7.70626 7.35234 7.77593 7.41365C7.8456 7.47496 7.92697 7.52153 8.01512 7.55055C8.10327 7.57957 8.19639 7.59045 8.28885 7.58252C8.38132 7.57459 8.47123 7.54802 8.55315 7.50441C8.63507 7.46081 8.70732 7.40106 8.76554 7.32879L9.20554 6.82004C9.89304 6.01566 9.74179 4.87441 8.59366 4.21441C8.34616 4.07691 8.15366 3.90504 8.32554 3.70566L8.76554 3.20379C8.82983 3.13685 8.8799 3.0576 8.91274 2.97079C8.94557 2.88399 8.9605 2.79144 8.9566 2.69871C8.95271 2.60599 8.93009 2.51501 8.89009 2.43126C8.8501 2.34752 8.79356 2.27273 8.72389 2.21142C8.65422 2.15011 8.57286 2.10354 8.4847 2.07452C8.39655 2.0455 8.30344 2.03462 8.21097 2.04255C8.1185 2.05048 8.0286 2.07705 7.94667 2.12066C7.86475 2.16427 7.7925 2.22401 7.73429 2.29629L7.29429 2.80504C6.59304 3.60941 6.75804 4.75066 7.90616 5.41066Z" fill="#FF8643"/>
<path d="M17.875 18.5625H16.1219C17.6969 17.6612 19.0063 16.3602 19.9177 14.7909C20.829 13.2217 21.3102 11.4397 21.3125 9.625C21.3125 9.44266 21.2401 9.2678 21.1111 9.13886C20.9822 9.00993 20.8073 8.9375 20.625 8.9375H1.375C1.19266 8.9375 1.0178 9.00993 0.888864 9.13886C0.759933 9.2678 0.6875 9.44266 0.6875 9.625C0.689814 11.4397 1.17096 13.2217 2.08234 14.7909C2.99372 16.3602 4.30306 17.6612 5.87813 18.5625H4.125C3.94266 18.5625 3.7678 18.6349 3.63886 18.7639C3.50993 18.8928 3.4375 19.0677 3.4375 19.25C3.4375 19.4323 3.50993 19.6072 3.63886 19.7361C3.7678 19.8651 3.94266 19.9375 4.125 19.9375H17.875C18.0573 19.9375 18.2322 19.8651 18.3611 19.7361C18.4901 19.6072 18.5625 19.4323 18.5625 19.25C18.5625 19.0677 18.4901 18.8928 18.3611 18.7639C18.2322 18.6349 18.0573 18.5625 17.875 18.5625Z" fill="#FF8643"/>
</svg>
