<svg width="36" height="33" viewBox="0 0 36 33" fill="none" xmlns="http://www.w3.org/2000/svg">
<g filter="url(#filter0_d_1_78)">
<path d="M17.7969 12.802H21.222V9.71924C20.4953 10.9697 19.3442 12.0178 17.8852 12.7586C17.8567 12.7731 17.8254 12.7875 17.7969 12.802Z" fill="#FF8643"/>
<path d="M12.984 24.8799H14.5027V22.6573C14.5027 22.1079 14.8532 21.6634 15.2864 21.6634C15.7195 21.6634 16.07 22.1079 16.07 22.6573V24.8799H17.5431H17.7512V20.3262C17.7512 19.7769 18.1016 19.3323 18.5348 19.3323C18.9679 19.3323 19.3184 19.7769 19.3184 20.3262V24.8799H20.273H20.9996V22.6573C20.9996 22.1079 21.3501 21.6634 21.7832 21.6634C22.2163 21.6634 22.5668 22.1079 22.5668 22.6573V24.8799H24.248V20.3262C24.248 19.7769 24.5985 19.3323 25.0316 19.3323C25.4647 19.3323 25.8152 19.7769 25.8152 20.3262V24.8799H27.4964V22.6573C27.4964 22.1079 27.8469 21.6634 28.28 21.6634C28.7131 21.6634 29.0636 22.1079 29.0636 22.6573V24.8799H30.5568C31.1865 24.8799 31.6966 24.233 31.6966 23.4343V15.4184C31.6966 14.6196 31.1865 13.9727 30.5568 13.9727H13.5539H12.984H12.4141C10.2912 13.8679 8.30511 13.1885 6.76923 12.032C5.92008 11.3923 5.2476 10.6334 4.77174 9.78409C4.76319 9.76964 4.75464 9.75518 4.74609 9.74072V16.0942V18.6674C4.74609 22.0971 8.43333 24.8799 12.984 24.8799Z" fill="#FF8643"/>
<path d="M12.6296 12.7947C12.7465 12.7984 12.8633 12.802 12.9829 12.802C16.3767 12.802 19.2917 11.2552 20.5512 9.04339C20.9815 8.29167 21.218 7.46044 21.218 6.58946C21.218 3.15614 17.5307 0.376953 12.9801 0.376953C8.42943 0.376953 4.74219 3.15975 4.74219 6.58946C4.74219 7.46044 4.98154 8.29167 5.40897 9.04339C6.63143 11.1757 9.38688 12.6899 12.6296 12.7947ZM12.9829 3.81751C15.0089 3.81751 16.6531 5.05712 16.6531 6.58585C16.6531 6.83522 16.6103 7.07736 16.5277 7.30504C16.4821 7.43515 16.4251 7.55802 16.3567 7.67729C15.7954 8.66392 14.496 9.35419 12.9829 9.35419C12.8633 9.35419 12.7464 9.35058 12.6296 9.33977C11.2704 9.24219 10.1278 8.58444 9.61199 7.67732C9.42108 7.34122 9.31565 6.97259 9.31565 6.58227C9.3128 5.05712 10.9541 3.81751 12.9829 3.81751Z" fill="#FF8643"/>
</g>
<defs>
<filter id="filter0_d_1_78" x="0.742188" y="0.376953" width="34.9544" height="32.5029" filterUnits="userSpaceOnUse" color-interpolation-filters="sRGB">
<feFlood flood-opacity="0" result="BackgroundImageFix"/>
<feColorMatrix in="SourceAlpha" type="matrix" values="0 0 0 0 0 0 0 0 0 0 0 0 0 0 0 0 0 0 127 0" result="hardAlpha"/>
<feOffset dy="4"/>
<feGaussianBlur stdDeviation="2"/>
<feComposite in2="hardAlpha" operator="out"/>
<feColorMatrix type="matrix" values="0 0 0 0 0 0 0 0 0 0 0 0 0 0 0 0 0 0 0.25 0"/>
<feBlend mode="normal" in2="BackgroundImageFix" result="effect1_dropShadow_1_78"/>
<feBlend mode="normal" in="SourceGraphic" in2="effect1_dropShadow_1_78" result="shape"/>
</filter>
</defs>
</svg>
