<svg width="15" height="22" viewBox="0 0 15 22" fill="none" xmlns="http://www.w3.org/2000/svg">
<path d="M7.975 0.218494C7.91632 0.149971 7.84351 0.0949612 7.76156 0.0572451C7.67962 0.019529 7.59047 0 7.50026 0C7.41005 0 7.32091 0.019529 7.23896 0.0572451C7.15701 0.0949612 7.0842 0.149971 7.02552 0.218494C5.37656 2.14714 0 8.81485 0 13.7539C0 18.3565 2.89792 21.2539 7.5 21.2539C12.1021 21.2539 15 18.3565 15 13.7539C15 8.81485 9.62344 2.14714 7.975 0.218494ZM8.33333 18.5456C8.23323 18.5458 8.13454 18.522 8.04556 18.4761C7.95659 18.4302 7.87993 18.3637 7.82205 18.282C7.76416 18.2003 7.72674 18.1059 7.71294 18.0068C7.69913 17.9076 7.70934 17.8066 7.74271 17.7122C7.78533 17.5891 7.86571 17.4825 7.97241 17.4077C8.0791 17.3329 8.20668 17.2937 8.33698 17.2956C9.16426 17.2938 9.95715 16.9644 10.5421 16.3794C11.1271 15.7944 11.4565 15.0015 11.4583 14.1742C11.4564 14.0439 11.4957 13.9164 11.5705 13.8097C11.6453 13.703 11.7519 13.6226 11.875 13.58C11.9694 13.5466 12.0704 13.5364 12.1695 13.5502C12.2687 13.564 12.3631 13.6014 12.4447 13.6593C12.5264 13.7172 12.593 13.7938 12.6389 13.8828C12.6847 13.9718 12.7086 14.0705 12.7083 14.1706C12.7071 15.3305 12.2458 16.4426 11.4256 17.2628C10.6054 18.083 9.49327 18.5443 8.33333 18.5456Z" fill="#FF8643"/>
</svg>
